<?xml version="1.0" standalone="no"?>
<!DOCTYPE svg PUBLIC "-//W3C//DTD SVG 20010904//EN"
 "http://www.w3.org/TR/2001/REC-SVG-20010904/DTD/svg10.dtd">
<svg version="1.0" xmlns="http://www.w3.org/2000/svg"
 width="1000.000000pt" height="400.000000pt" viewBox="0 0 1000.000000 400.000000"
 preserveAspectRatio="xMidYMid meet">
<metadata>
Created by potrace 1.16, written by Peter Selinger 2001-2019
</metadata>
<g transform="translate(0.000000,400.000000) scale(0.100000,-0.100000)"
fill="#000000" stroke="none">
<path d="M4025 3144 c-297 -24 -578 -51 -625 -59 -97 -18 -222 -74 -245 -109
-40 -60 -34 -86 85 -426 54 -154 174 -524 190 -589 6 -24 23 -68 37 -99 13
-30 50 -125 80 -211 30 -86 77 -219 105 -296 27 -77 62 -178 78 -225 101 -301
163 -476 176 -503 34 -68 88 -107 146 -107 25 0 29 -3 18 -10 -12 -8 -9 -10
13 -10 33 0 94 -24 119 -47 17 -16 24 -9 19 20 0 4 14 7 33 7 61 0 1238 199
1311 222 119 36 175 92 175 172 0 29 -62 225 -139 441 -11 32 -21 70 -21 82 0
13 -4 23 -8 23 -5 0 -13 15 -19 33 -6 17 -32 92 -57 166 -26 74 -44 136 -42
138 2 3 75 -3 163 -11 87 -8 208 -19 268 -23 111 -7 111 -18 0 -23 l-50 -2 45
-10 c55 -12 597 -1 619 12 11 6 -10 9 -61 10 -43 0 -78 4 -78 8 0 5 48 12 108
15 238 14 622 62 847 107 100 20 100 20 190 0 50 -11 108 -20 130 -20 22 0 51
-7 64 -16 20 -15 43 -16 165 -10 77 3 154 10 169 14 l29 8 -21 18 c-26 24 -12
46 30 46 38 0 191 80 267 141 69 55 137 137 171 205 36 70 72 63 246 -51 143
-93 149 -96 181 -86 16 5 74 15 129 22 55 7 91 14 80 16 -11 2 -38 8 -60 13
-222 49 -240 55 -294 91 -70 46 -139 83 -166 87 -38 5 -75 27 -81 47 -20 72
-73 138 -154 190 -103 67 -240 132 -332 158 -75 21 -89 29 -129 72 -124 136
-365 217 -640 216 -309 -1 -557 -72 -660 -189 l-39 -45 -133 -3 c-359 -8 -788
-62 -1151 -145 -78 -18 -133 -26 -139 -20 -7 7 -105 281 -150 419 -17 52 -80
116 -139 143 -84 37 -227 34 -853 -17z m-22 -307 c21 -67 21 -67 -3 -67 -13 0
-20 7 -20 19 0 10 -7 24 -15 31 -13 11 -15 7 -15 -24 0 -49 -28 -48 -70 2 -32
38 -32 36 -14 -28 4 -14 1 -20 -11 -20 -16 0 -41 48 -52 101 -5 27 -3 29 24
29 23 0 36 -8 54 -34 28 -41 39 -38 39 10 0 32 2 34 33 34 30 0 33 -4 50 -53z
m2664 -455 c74 -61 122 -87 260 -142 104 -41 114 -47 124 -78 6 -18 8 -36 5
-39 -16 -17 -378 -56 -671 -74 -199 -12 -957 -5 -1012 10 -28 7 -34 21 -108
243 -5 13 3 19 32 28 80 22 282 59 369 67 l91 9 13 -29 c7 -16 28 -36 47 -45
24 -11 33 -21 30 -33 -6 -23 8 -27 68 -19 l50 7 -42 2 c-23 0 -45 5 -48 11 -8
13 25 25 110 40 39 7 93 21 122 31 87 29 260 52 435 57 66 2 68 2 125 -46z"/>
<path d="M788 2299 c-144 -13 -296 -45 -358 -76 -64 -32 -60 -13 -41 -233 6
-74 14 -198 17 -275 7 -178 13 -198 70 -231 125 -74 354 -109 639 -100 247 7
417 30 650 86 66 16 161 34 210 40 136 17 245 37 294 54 24 9 52 16 63 16 10
0 21 7 24 15 4 8 11 15 16 15 11 0 134 46 159 60 9 5 45 14 80 20 85 14 259
70 259 82 0 5 -7 16 -15 25 -14 14 -25 12 -110 -16 -123 -41 -259 -61 -412
-61 -141 0 -215 13 -258 46 -17 13 -50 59 -73 103 -36 67 -49 83 -85 100 -24
12 -48 21 -54 21 -6 0 -13 6 -16 13 -2 8 -30 12 -91 12 -85 -1 -87 0 -92 25
-3 14 -10 43 -16 65 -6 22 -11 53 -12 69 -1 41 -35 61 -146 91 -160 42 -451
56 -702 34z"/>
<path d="M9336 1443 c-1 -1 -503 -2 -1116 -3 -613 -1 -1284 -6 -1490 -10 -206
-5 -545 -10 -752 -11 -208 -1 -378 -5 -378 -9 0 -7 2398 -2 2418 5 7 3 290 5
630 6 339 1 680 5 757 8 l140 7 -103 4 c-57 3 -105 4 -106 3z"/>
<path d="M8825 820 c-38 -4 -259 -11 -490 -16 -311 -5 -412 -10 -390 -18 40
-13 712 -11 856 4 115 11 139 17 139 31 0 10 -12 10 -115 -1z"/>
<path d="M5520 439 c-58 -11 -305 -56 -550 -100 -245 -44 -489 -89 -543 -100
-54 -10 -117 -20 -140 -20 -27 -1 -6 -6 58 -15 80 -11 118 -12 190 -3 97 12
330 52 540 93 72 14 184 34 250 45 275 46 435 83 435 101 0 25 -99 25 -240 -1z"/>
</g>
</svg>
